<?xml version="1.0" encoding="utf-8"?>
<!-- Generator: Adobe Illustrator 17.1.0, SVG Export Plug-In . SVG Version: 6.00 Build 0)  -->
<!DOCTYPE svg PUBLIC "-//W3C//DTD SVG 1.1//EN" "http://www.w3.org/Graphics/SVG/1.1/DTD/svg11.dtd">
<svg version="1.1" id="Layer_1" xmlns="http://www.w3.org/2000/svg" xmlns:xlink="http://www.w3.org/1999/xlink" x="0px" y="0px"
	 viewBox="87.4 50 337.1 412" enable-background="new 87.4 50 337.1 412" xml:space="preserve">
<path id="trash-can-icon" fill="#444444" d="M424.6,78v40H87.4V78h94.9c15.5,0,28-12.5,28-28h91.3c0,15.5,12.5,28,28,28H424.6z
	 M406.3,148.1V462H105.7V148.1H406.3z M197.3,210.5c0-8.3-6.7-15-15-15s-15,6.7-15,15v190.2c0,8.3,6.7,15,15,15s15-6.7,15-15V210.5z
	 M271,210.5c0-8.3-6.7-15-15-15s-15,6.7-15,15v190.2c0,8.3,6.7,15,15,15s15-6.7,15-15V210.5z M344.7,210.5c0-8.3-6.7-15-15-15
	s-15,6.7-15,15v190.2c0,8.3,6.7,15,15,15s15-6.7,15-15V210.5z"/>
</svg>
