<?xml version="1.0" encoding="utf-8"?>
<!-- Generator: Adobe Illustrator 17.1.0, SVG Export Plug-In . SVG Version: 6.00 Build 0)  -->
<!DOCTYPE svg PUBLIC "-//W3C//DTD SVG 1.1//EN" "http://www.w3.org/Graphics/SVG/1.1/DTD/svg11.dtd">
<svg version="1.1" id="Layer_1" xmlns="http://www.w3.org/2000/svg" xmlns:xlink="http://www.w3.org/1999/xlink" x="0px" y="0px"
	 viewBox="50 60.1 412 391.8" enable-background="new 50 60.1 412 391.8" xml:space="preserve">
<path id="bookmark-24-icon" fill="#FFFFFA" d="M377.3,148.7c-46.8,0-84.7,37.9-84.7,84.7c0,46.8,37.9,84.7,84.7,84.7
	s84.7-37.9,84.7-84.7C462,186.6,424.1,148.7,377.3,148.7z M429.4,248.7H327.8v-28.3h101.6V248.7z M364.6,347.3l18.7,104.6L256,383.8
	l-127.3,68.1l25.4-142.1L50,209.7L193,190l63-129.9l43.3,89.3c-23.8,22.2-36.6,52.3-36.6,84c0,30.6,11.9,59.4,33.6,81.1
	C314.9,333,338.8,344.5,364.6,347.3z"/>
</svg>
