<?xml version="1.0" encoding="utf-8"?>
<!-- Generator: Adobe Illustrator 17.1.0, SVG Export Plug-In . SVG Version: 6.00 Build 0)  -->
<!DOCTYPE svg PUBLIC "-//W3C//DTD SVG 1.1//EN" "http://www.w3.org/Graphics/SVG/1.1/DTD/svg11.dtd">
<svg version="1.1" id="Layer_1" xmlns="http://www.w3.org/2000/svg" xmlns:xlink="http://www.w3.org/1999/xlink" x="0px" y="0px"
	 viewBox="50 50 412 412" enable-background="new 50 50 412 412" xml:space="preserve">
<path id="arrow-28-icon" fill="#FFFFFA" d="M90,256c0,91.8,74.3,166,166,166c91.8,0,166-74.3,166-166c0-91.8-74.3-166-166-166
	C164.2,90,90,164.3,90,256z M462,256c0,113.8-92.2,206-206,206S50,369.8,50,256S142.2,50,256,50S462,142.2,462,256z M200,168.6
	l32.3-32.1L352.2,257L232.2,377.5L200,345.4l88-88.4L200,168.6z"/>
</svg>
