<?xml version="1.0" encoding="utf-8"?>
<!-- Generator: Adobe Illustrator 17.1.0, SVG Export Plug-In . SVG Version: 6.00 Build 0)  -->
<!DOCTYPE svg PUBLIC "-//W3C//DTD SVG 1.1//EN" "http://www.w3.org/Graphics/SVG/1.1/DTD/svg11.dtd">
<svg version="1.1" id="Layer_1" xmlns="http://www.w3.org/2000/svg" xmlns:xlink="http://www.w3.org/1999/xlink" x="0px" y="0px"
	 viewBox="59.9 50 392.1 412" enable-background="new 59.9 50 392.1 412" xml:space="preserve">
<path id="direction-7-icon" fill="#FFFFFA" d="M452.1,219.2L405,320.8l-15.2-37.7c-71.3,36.7-92.7,92.2-97.4,178.9l-71.9-0.3
	c5.6-110.2,35.7-193.2,142.3-245.5l-15.3-38.1L452.1,219.2z M220.6,223.7c13.4,10.7,25.2,22.4,35.8,35
	c10.6-12.5,22.6-24.1,36.1-34.7v-90.4h41.3L258,50l-78.1,83l40.6,0.2L220.6,223.7L220.6,223.7z M237.4,284.2
	c-20.8-26.7-49-49.7-87.2-68.8l15.6-38L59.9,216.7l47.3,103l15.5-37.6c41.2,21.6,65.6,49.5,79.6,86
	C209.8,337.7,221,309.9,237.4,284.2z"/>
</svg>
