<?xml version="1.0" encoding="utf-8"?>
<!-- Generator: Adobe Illustrator 17.1.0, SVG Export Plug-In . SVG Version: 6.00 Build 0)  -->
<!DOCTYPE svg PUBLIC "-//W3C//DTD SVG 1.1//EN" "http://www.w3.org/Graphics/SVG/1.1/DTD/svg11.dtd">
<svg version="1.1" id="Layer_1" xmlns="http://www.w3.org/2000/svg" xmlns:xlink="http://www.w3.org/1999/xlink" x="0px" y="0px"
	 viewBox="71 71 370 370" enable-background="new 71 71 370 370" xml:space="preserve">
<path id="checkbox-14-icon" fill="#FFFFFA" d="M224.9,342.3l-77.4-77.4l33-33l44.4,44.5l102.6-102.6l33,32.9L224.9,342.3z M256,111
	c38.7,0,75.1,15.1,102.5,42.5S401,217.3,401,256s-15.1,75.1-42.5,102.5S294.7,401,256,401s-75.1-15.1-102.5-42.5S111,294.7,111,256
	s15.1-75.1,42.5-102.5S217.3,111,256,111z M256,71C153.8,71,71,153.8,71,256s82.8,185,185,185c102.2,0,185-82.8,185-185
	S358.2,71,256,71z"/>
</svg>
