<?xml version="1.0" encoding="utf-8"?>
<!-- Generator: Adobe Illustrator 17.1.0, SVG Export Plug-In . SVG Version: 6.00 Build 0)  -->
<!DOCTYPE svg PUBLIC "-//W3C//DTD SVG 1.1//EN" "http://www.w3.org/Graphics/SVG/1.1/DTD/svg11.dtd">
<svg version="1.1" id="Layer_1" xmlns="http://www.w3.org/2000/svg" xmlns:xlink="http://www.w3.org/1999/xlink" x="0px" y="0px"
	 viewBox="97 95.8 317.9 320.3" enable-background="new 97 95.8 317.9 320.3" xml:space="preserve">
<path id="magnifier-icon" fill="#444444" d="M415,374.5l-84.8-84.8c12.4-19.5,19.6-42.7,19.6-67.5c0-69.7-56.7-126.4-126.4-126.4
	C153.7,95.8,97,152.5,97,222.2s56.7,126.4,126.4,126.4c23.6,0,45.7-6.5,64.6-17.8l85.4,85.4L415,374.5z M144.1,222.2
	c0-43.7,35.6-79.3,79.3-79.3s79.3,35.6,79.3,79.3s-35.6,79.3-79.3,79.3C179.7,301.5,144.1,265.9,144.1,222.2z"/>
</svg>
